<?xml version="1.0" encoding="UTF-8" standalone="no"?>
<!DOCTYPE svg PUBLIC "-//W3C//DTD SVG 1.1//EN" "http://www.w3.org/Graphics/SVG/1.1/DTD/svg11.dtd">
<!-- Generated by Microsoft Visio, SVG Export TestPic.svg Top Process -->
<svg xmlns="http://www.w3.org/2000/svg" xmlns:xlink="http://www.w3.org/1999/xlink" xmlns:ev="http://www.w3.org/2001/xml-events"
		xmlns:v="http://schemas.microsoft.com/visio/2003/SVGExtensions/" width="8.5in" height="11in" viewBox="0 0 612 792"
		xml:space="preserve" color-interpolation-filters="sRGB" class="st18">
	<v:documentProperties v:langID="1033">
		<v:userDefs>
			<v:ud v:nameU="msvNoAutoConnect" v:val="VT0(0):26"/>
		</v:userDefs>
	</v:documentProperties>

	<style type="text/css">
	<![CDATA[
		.st1 {fill:#ff0000}
		.st2 {stroke:#000000;stroke-linecap:round;stroke-linejoin:round;stroke-width:0.24}
		.st3 {fill:#ca0000;stroke:#000000;stroke-linecap:round;stroke-linejoin:round;stroke-width:0.24}
		.st4 {fill:#c05046;stroke:none;stroke-linecap:round;stroke-linejoin:round;stroke-width:0.24}
		.st5 {fill:#ffffff;font-family:Arial;font-size:1.5em}
		.st6 {fill:#4bacc6;stroke:none;stroke-linecap:round;stroke-linejoin:round;stroke-width:0.24}
		.st7 {fill:#7f7f7f;stroke:none;stroke-width:1}
		.st8 {fill:none}
		.st9 {stroke:none;stroke-linecap:round;stroke-linejoin:round;stroke-width:0.75}
		.st10 {fill:none;stroke:none;stroke-linecap:round;stroke-linejoin:round;stroke-width:0.24}
		.st11 {fill:#7f7f7f;stroke:none;stroke-linecap:round;stroke-linejoin:round;stroke-width:0.75;visibility:hidden}
		.st12 {fill:#9dbb61;stroke:none;stroke-linecap:round;stroke-linejoin:round;stroke-width:0.24}
		.st13 {font-size:1em}
		.st14 {fill:#00b050}
		.st15 {fill:#00863d;stroke:#000000;stroke-linecap:round;stroke-linejoin:round;stroke-width:0.24}
		.st16 {fill:#ff0000;stroke:#000000;stroke-linecap:round;stroke-linejoin:round;stroke-width:0.24}
		.st17 {fill:#00b0f0;stroke:#000000;stroke-linecap:round;stroke-linejoin:round;stroke-width:0.24}
		.st18 {fill:none;fill-rule:evenodd;font-size:12px;overflow:visible;stroke-linecap:square;stroke-miterlimit:3}
	]]>
	</style>

	<g v:mID="0" v:index="1" v:groupContext="foregroundPage">
		<title>Top Process</title>
		<v:pageProperties v:drawingScale="1" v:pageScale="1" v:drawingUnits="0" v:shadowOffsetX="9" v:shadowOffsetY="-9"/>
		<v:layer v:name="1 Base" v:index="0"/>
		<v:layer v:name="2 New Box" v:index="1"/>
		<v:layer v:name="3 Breaks" v:index="2"/>
		<v:layer v:name="4 Fix" v:index="3"/>
		<g id="group43-1" transform="translate(414,-500.4)" v:mID="43" v:groupContext="group" v:layerMember="2">
			<v:userDefs>
				<v:ud v:nameU="visVersion" v:prompt="" v:val="VT0(15):26"/>
			</v:userDefs>
			<title>Frowning Face</title>
			<g id="shape43-2" v:mID="43" v:groupContext="groupContent" v:layerMember="2">
				<path d="M90 747 A45 45 -180 1 0 0 747 A45 45 -180 1 0 90 747 Z" class="st1"/>
				<path d="M90 747 A45 45 -180 1 0 0 747 A45 45 -180 1 0 90 747" class="st2"/>
				<path d="M22.5 765 A32.625 32.625 0 0 1 67.5 765" class="st2"/>
			</g>
			<g id="shape44-6" v:mID="44" v:groupContext="shape" v:layerMember="2" transform="translate(24.75,-51.75)">
				<title>Sheet.44</title>
				<v:userDefs>
					<v:ud v:nameU="FillForegnd" v:prompt="" v:val="VT5(1)"/>
					<v:ud v:nameU="FillForegnd" v:prompt="" v:val="VT5(#ff0000)"/>
				</v:userDefs>
				<ellipse cx="6.75" cy="785.25" rx="6.75" ry="6.75" class="st3"/>
			</g>
			<g id="shape45-8" v:mID="45" v:groupContext="shape" v:layerMember="2" transform="translate(51.75,-51.75)">
				<title>Sheet.45</title>
				<v:userDefs>
					<v:ud v:nameU="FillForegnd" v:prompt="" v:val="VT5(1)"/>
					<v:ud v:nameU="FillForegnd" v:prompt="" v:val="VT5(#ff0000)"/>
				</v:userDefs>
				<ellipse cx="6.75" cy="785.25" rx="6.75" ry="6.75" class="st3"/>
			</g>
		</g>
		<g id="shape1-10" v:mID="1" v:groupContext="shape" v:layerMember="0;1;2;3" transform="translate(108,-655.2)">
			<title>Box</title>
			<desc>Foo</desc>
			<v:userDefs>
				<v:ud v:nameU="visVersion" v:val="VT0(15):26"/>
			</v:userDefs>
			<v:textBlock v:margins="rect(4,4,4,4)"/>
			<v:textRect cx="54" cy="756" width="108" height="72"/>
			<rect x="0" y="720" width="108" height="72" class="st4"/>
			<text x="38.49" y="761.4" class="st5" v:langID="1033"><v:paragraph v:horizAlign="1"/><v:tabList/>Foo</text>		</g>
		<g id="shape2-13" v:mID="2" v:groupContext="shape" v:layerMember="0;1;2;3" transform="translate(331.2,-655.2)">
			<title>Box.16</title>
			<desc>BAR</desc>
			<v:userDefs>
				<v:ud v:nameU="visVersion" v:val="VT0(15):26"/>
			</v:userDefs>
			<v:textBlock v:margins="rect(4,4,4,4)"/>
			<v:textRect cx="54" cy="756" width="108" height="72"/>
			<rect x="0" y="720" width="108" height="72" class="st6"/>
			<text x="35.49" y="761.4" class="st5" v:langID="1033"><v:paragraph v:horizAlign="1"/><v:tabList/>BAR</text>		</g>
		<g id="group3-16" transform="translate(237.12,-673.2)" v:mID="3" v:groupContext="group" v:layerMember="0">
			<v:userDefs>
				<v:ud v:nameU="visVersion" v:val="VT0(15):26"/>
			</v:userDefs>
			<title>2-D single</title>
			<g id="group4-17" transform="translate(0.48,0)" v:mID="4" v:groupContext="group" v:layerMember="0">
				<title>Sheet.4</title>
				<g id="shape5-18" v:mID="5" v:groupContext="shape" v:layerMember="0">
					<title>Sheet.5</title>
					<path d="M0 783 L63 783 L63 792 L72 774 L63 756 L63 765 L0 765 L0 783 Z" class="st7"/>
				</g>
				<g id="shape6-20" v:mID="6" v:groupContext="shape" v:layerMember="0">
					<title>Sheet.6</title>
					<path d="M0 783 L63 783 L63 792 L72 774 L63 756 L63 765 L0 765 L0 783 Z" class="st8"/>
					<path d="M0 783 L63 783 L63 792 L72 774 L63 756 L63 765 L0 765" class="st9"/>
				</g>
			</g>
			<g id="shape7-23" v:mID="7" v:groupContext="shape" v:layerMember="0" transform="translate(0.48,0)">
				<title>Sheet.7</title>
				<path d="M0 783 L63 783 L63 792 L72 774 L63 756 L63 765 L0 765 L0 783 Z" class="st10"/>
			</g>
			<g id="shape8-25" v:mID="8" v:groupContext="shape" v:layerMember="0" transform="translate(4.3715E-016,-9.24)">
				<title>Sheet.8</title>
				<rect x="0" y="774.48" width="0.48" height="17.52" class="st11"/>
			</g>
		</g>
		<g id="shape9-27" v:mID="9" v:groupContext="shape" v:layerMember="1;2;3" transform="translate(219.6,-511.2)">
			<title>Box.21</title>
			<desc>MORE STUFF</desc>
			<v:userDefs>
				<v:ud v:nameU="visVersion" v:val="VT0(15):26"/>
			</v:userDefs>
			<v:textBlock v:margins="rect(4,4,4,4)"/>
			<v:textRect cx="54" cy="756" width="108" height="72"/>
			<rect x="0" y="720" width="108" height="72" class="st12"/>
			<text x="27" y="750.6" class="st5" v:langID="1033"><v:paragraph v:horizAlign="1"/><v:tabList/>MORE <tspan x="25"
						dy="1.2em" class="st13">STUFF</tspan></text>		</g>
		<g id="group10-31" transform="translate(1010.18,546.266) rotate(120)" v:mID="10" v:groupContext="group"
				v:layerMember="1;2;3">
			<v:userDefs>
				<v:ud v:nameU="visVersion" v:val="VT0(15):26"/>
			</v:userDefs>
			<title>2-D single.22</title>
			<g id="group11-32" transform="translate(0.48,0)" v:mID="11" v:groupContext="group" v:layerMember="1;2;3">
				<title>Sheet.11</title>
				<g id="shape12-33" v:mID="12" v:groupContext="shape" v:layerMember="1;2;3">
					<title>Sheet.12</title>
					<path d="M0 783 L25.44 783 L25.44 792 L34.44 774 L25.44 756 L25.44 765 L0 765 L0 783 Z" class="st7"/>
				</g>
				<g id="shape13-35" v:mID="13" v:groupContext="shape" v:layerMember="1;2;3">
					<title>Sheet.13</title>
					<path d="M0 783 L25.44 783 L25.44 792 L34.44 774 L25.44 756 L25.44 765 L0 765 L0 783 Z" class="st8"/>
					<path d="M0 783 L25.44 783 L25.44 792 L34.44 774 L25.44 756 L25.44 765 L0 765" class="st9"/>
				</g>
			</g>
			<g id="shape14-38" v:mID="14" v:groupContext="shape" v:layerMember="1;2;3" transform="translate(0.48,0)">
				<title>Sheet.14</title>
				<path d="M0 783 L25.44 783 L25.44 792 L34.44 774 L25.44 756 L25.44 765 L0 765 L0 783 Z" class="st10"/>
			</g>
			<g id="shape15-40" v:mID="15" v:groupContext="shape" v:layerMember="1;2;3" transform="translate(8.43076E-016,-9.24)">
				<title>Sheet.15</title>
				<rect x="0" y="774.48" width="0.48" height="17.52" class="st11"/>
			</g>
		</g>
		<g id="group16-42" transform="translate(877.622,-227.734) rotate(60)" v:mID="16" v:groupContext="group"
				v:layerMember="1;2;3">
			<v:userDefs>
				<v:ud v:nameU="visVersion" v:val="VT0(15):26"/>
			</v:userDefs>
			<title>2-D single.27</title>
			<g id="group17-43" transform="translate(0.48,0)" v:mID="17" v:groupContext="group" v:layerMember="1;2;3">
				<title>Sheet.17</title>
				<g id="shape18-44" v:mID="18" v:groupContext="shape" v:layerMember="1;2;3">
					<title>Sheet.18</title>
					<path d="M0 783 L25.44 783 L25.44 792 L34.44 774 L25.44 756 L25.44 765 L0 765 L0 783 Z" class="st7"/>
				</g>
				<g id="shape19-46" v:mID="19" v:groupContext="shape" v:layerMember="1;2;3">
					<title>Sheet.19</title>
					<path d="M0 783 L25.44 783 L25.44 792 L34.44 774 L25.44 756 L25.44 765 L0 765 L0 783 Z" class="st8"/>
					<path d="M0 783 L25.44 783 L25.44 792 L34.44 774 L25.44 756 L25.44 765 L0 765" class="st9"/>
				</g>
			</g>
			<g id="shape20-49" v:mID="20" v:groupContext="shape" v:layerMember="1;2;3" transform="translate(0.48,0)">
				<title>Sheet.20</title>
				<path d="M0 783 L25.44 783 L25.44 792 L34.44 774 L25.44 756 L25.44 765 L0 765 L0 783 Z" class="st10"/>
			</g>
			<g id="shape21-51" v:mID="21" v:groupContext="shape" v:layerMember="1;2;3" transform="translate(8.43076E-016,-9.24)">
				<title>Sheet.21</title>
				<rect x="0" y="774.48" width="0.48" height="17.52" class="st11"/>
			</g>
		</g>
		<g id="group33-53" transform="translate(86.4,-380.53)" v:mID="33" v:groupContext="group">
			<title>Sheet.33</title>
		</g>
		<g id="group34-54" transform="translate(86.4,-380.53)" v:mID="34" v:groupContext="group">
			<title>Sheet.34</title>
		</g>
		<g id="group35-55" transform="translate(414,-500.4)" v:mID="35" v:groupContext="group" v:layerMember="3">
			<v:userDefs>
				<v:ud v:nameU="visVersion" v:prompt="" v:val="VT0(15):26"/>
			</v:userDefs>
			<title>Smiling Face</title>
			<g id="shape35-56" v:mID="35" v:groupContext="groupContent" v:layerMember="3">
				<path d="M90 747 A45 45 -180 1 0 0 747 A45 45 -180 1 0 90 747 Z" class="st14"/>
				<path d="M90 747 A45 45 -180 1 0 0 747 A45 45 -180 1 0 90 747" class="st2"/>
				<path d="M22.5 765 A32.625 32.625 -180 0 0 67.5 765" class="st2"/>
			</g>
			<g id="shape36-60" v:mID="36" v:groupContext="shape" v:layerMember="3" transform="translate(24.75,-51.75)">
				<title>Sheet.36</title>
				<v:userDefs>
					<v:ud v:nameU="FillForegnd" v:prompt="" v:val="VT5(1)"/>
					<v:ud v:nameU="FillForegnd" v:prompt="" v:val="VT5(#00b050)"/>
				</v:userDefs>
				<ellipse cx="6.75" cy="785.25" rx="6.75" ry="6.75" class="st15"/>
			</g>
			<g id="shape37-62" v:mID="37" v:groupContext="shape" v:layerMember="3" transform="translate(51.75,-51.75)">
				<title>Sheet.37</title>
				<v:userDefs>
					<v:ud v:nameU="FillForegnd" v:prompt="" v:val="VT5(1)"/>
					<v:ud v:nameU="FillForegnd" v:prompt="" v:val="VT5(#00b050)"/>
				</v:userDefs>
				<ellipse cx="6.75" cy="785.25" rx="6.75" ry="6.75" class="st15"/>
			</g>
		</g>
		<g id="shape46-64" v:mID="46" v:groupContext="shape" v:layerMember="2;3" transform="translate(313.2,-626.4)">
			<title>Multiplication Sign</title>
			<v:userDefs>
				<v:ud v:nameU="AspectAngle" v:prompt="" v:val="VT0(0.78539816339745):32"/>
				<v:ud v:nameU="BarWidth" v:prompt="" v:val="VT0(0.25):1"/>
				<v:ud v:nameU="visVersion" v:prompt="" v:val="VT0(15):26"/>
				<v:ud v:nameU="AspectAngle" v:prompt="" v:val="VT0(0.72055413584424):32"/>
				<v:ud v:nameU="BarWidth" v:prompt="" v:val="VT0(0.36):1"/>
			</v:userDefs>
			<path d="M14.76 759.56 L31.86 779.04 L73.8 747.95 L115.74 779.04 L132.84 759.56 L95.4 727.2 L132.84 694.84 L115.74 675.36
						 L73.8 706.45 L31.86 675.36 L14.76 694.84 L52.2 727.2 L14.76 759.56 Z" class="st16"/>
		</g>
		<g id="group48-66" transform="translate(55.5,-504)" v:mID="48" v:groupContext="group" v:layerMember="3">
			<v:userDefs>
				<v:ud v:nameU="visVersion" v:prompt="" v:val="VT0(15):26"/>
			</v:userDefs>
			<title>Can</title>
			<g id="shape49-67" v:mID="49" v:groupContext="shape" v:layerMember="3">
				<title>Sheet.49</title>
				<v:userDefs>
					<v:ud v:nameU="ControlHalfHeight" v:prompt="" v:val="VT0(0.125):1"/>
					<v:ud v:nameU="FillForegnd" v:prompt="" v:val="VT5(1)"/>
					<v:ud v:nameU="FillForegnd" v:prompt="" v:val="VT5(#00b0f0)"/>
				</v:userDefs>
				<path d="M0 783 A36 9 -180 1 0 72 783 L72 711 L0 711 L0 783 Z" class="st17"/>
			</g>
			<g id="shape48-69" v:mID="48" v:groupContext="groupContent" v:layerMember="3">
				<ellipse cx="36" cy="711" rx="36" ry="9" class="st17"/>
			</g>
		</g>
		<g id="group51-71" transform="translate(136.56,-525.6)" v:mID="51" v:groupContext="group" v:layerMember="3">
			<v:userDefs>
				<v:ud v:nameU="visVersion" v:val="VT0(15):26"/>
			</v:userDefs>
			<title>2-D single.51</title>
			<g id="group52-72" transform="translate(0.48,0)" v:mID="52" v:groupContext="group" v:layerMember="3">
				<title>Sheet.52</title>
				<g id="shape53-73" v:mID="53" v:groupContext="shape" v:layerMember="3">
					<title>Sheet.53</title>
					<path d="M0 783 L63 783 L63 792 L72 774 L63 756 L63 765 L0 765 L0 783 Z" class="st7"/>
				</g>
				<g id="shape54-75" v:mID="54" v:groupContext="shape" v:layerMember="3">
					<title>Sheet.54</title>
					<path d="M0 783 L63 783 L63 792 L72 774 L63 756 L63 765 L0 765 L0 783 Z" class="st8"/>
					<path d="M0 783 L63 783 L63 792 L72 774 L63 756 L63 765 L0 765" class="st9"/>
				</g>
			</g>
			<g id="shape55-78" v:mID="55" v:groupContext="shape" v:layerMember="3" transform="translate(0.48,0)">
				<title>Sheet.55</title>
				<path d="M0 783 L63 783 L63 792 L72 774 L63 756 L63 765 L0 765 L0 783 Z" class="st10"/>
			</g>
			<g id="shape56-80" v:mID="56" v:groupContext="shape" v:layerMember="3" transform="translate(4.3715E-016,-9.24)">
				<title>Sheet.56</title>
				<rect x="0" y="774.48" width="0.48" height="17.52" class="st11"/>
			</g>
		</g>
	</g>
</svg>
